<svg width="1024" height="1024" viewBox="0 0 1024 1024" fill="none" xmlns="http://www.w3.org/2000/svg">
  <defs>
    <linearGradient id="shell" x1="206" y1="132" x2="824" y2="890" gradientUnits="userSpaceOnUse">
      <stop offset="0" stop-color="#FFFFFF"/>
      <stop offset="1" stop-color="#F4F8FB"/>
    </linearGradient>
    <linearGradient id="stroke" x1="282" y1="230" x2="724" y2="820" gradientUnits="userSpaceOnUse">
      <stop offset="0" stop-color="#111827"/>
      <stop offset="1" stop-color="#475569"/>
    </linearGradient>
    <linearGradient id="signal" x1="458" y1="450" x2="626" y2="612" gradientUnits="userSpaceOnUse">
      <stop offset="0" stop-color="#0284C7"/>
      <stop offset="1" stop-color="#38BDF8"/>
    </linearGradient>
    <filter id="softShadow" x="84" y="84" width="856" height="856" filterUnits="userSpaceOnUse" color-interpolation-filters="sRGB">
      <feDropShadow dx="0" dy="28" stdDeviation="36" flood-color="#0F172A" flood-opacity="0.12"/>
    </filter>
  </defs>

  <rect width="1024" height="1024" fill="#FFFFFF"/>
  <g filter="url(#softShadow)">
    <rect x="104" y="104" width="816" height="816" rx="188" fill="url(#shell)"/>
    <rect x="116" y="116" width="792" height="792" rx="176" stroke="#D8E0E8" stroke-width="24"/>
  </g>

  <path d="M256 682V326C256 286.235 288.235 254 328 254H698C737.765 254 770 286.235 770 326V682C770 721.765 737.765 754 698 754H328C288.235 754 256 721.765 256 682Z" stroke="url(#stroke)" stroke-width="34"/>
  <path d="M274 368H752" stroke="url(#stroke)" stroke-width="34" stroke-linecap="round"/>
  <circle cx="338" cy="312" r="15" fill="#111827"/>
  <circle cx="386" cy="312" r="15" fill="#111827"/>
  <circle cx="434" cy="312" r="15" fill="#111827"/>

  <path d="M642 790V458C642 418.235 674.235 386 714 386H790C829.765 386 862 418.235 862 458V790C862 829.765 829.765 862 790 862H714C674.235 862 642 829.765 642 790Z" fill="#FFFFFF" stroke="url(#stroke)" stroke-width="34"/>
  <path d="M724 434H780" stroke="#111827" stroke-width="18" stroke-linecap="round"/>

  <path d="M418 636C456 575 520 534 592 526" stroke="url(#signal)" stroke-width="28" stroke-linecap="round"/>
  <path d="M476 652C502 610 546 582 596 576" stroke="url(#signal)" stroke-width="28" stroke-linecap="round"/>
  <path d="M536 664C550 640 574 624 604 620" stroke="url(#signal)" stroke-width="28" stroke-linecap="round"/>
  <circle cx="604" cy="676" r="19" fill="#0284C7"/>
</svg>
